<svg id="Component_59_19" data-name="Component 59 – 19" xmlns="http://www.w3.org/2000/svg" width="35.934" height="35.937" viewBox="0 0 35.934 35.937">
  <path id="Path_181680" data-name="Path 181680" d="M495.705,688.879a14.992,14.992,0,0,1,11.173-11.174,26.635,26.635,0,0,1,12.177,0,14.992,14.992,0,0,1,11.173,11.174,26.644,26.644,0,0,1,0,12.178,14.992,14.992,0,0,1-11.173,11.174,26.633,26.633,0,0,1-12.177,0,14.992,14.992,0,0,1-11.173-11.174A26.637,26.637,0,0,1,495.705,688.879Z" transform="translate(-495 -677)" fill="#7063bf"/>
  <g id="Group_93715" data-name="Group 93715">
    <path id="Path_181682" data-name="Path 181682" d="M-9849.227-262.032l-8.039,8.039" transform="translate(9868.064 272.813)" fill="none" stroke="#fff" stroke-linecap="round" stroke-width="1.5"/>
    <path id="Path_181684" data-name="Path 181684" d="M-9852.635-262.032l-4.631,4.631" transform="translate(9877.77 282.556)" fill="none" stroke="#fff" stroke-linecap="round" stroke-width="1.5"/>
    <path id="Path_181683" data-name="Path 181683" d="M-9844.674-262.032l-12.592,12.592" transform="translate(9869.809 274.556)" fill="none" stroke="#fff" stroke-linecap="round" stroke-width="1.5"/>
  </g>
</svg>
