<svg xmlns="http://www.w3.org/2000/svg" xmlns:xlink="http://www.w3.org/1999/xlink" width="182.09" height="202.074" viewBox="0 0 182.09 202.074">
  <defs>
    <clipPath id="clip-path">
      <rect id="Rectangle_26655" data-name="Rectangle 26655" width="182.09" height="202.074" transform="translate(-3677 11810)" fill="#ff7878"/>
    </clipPath>
  </defs>
  <g id="Mask_Group_898" data-name="Mask Group 898" transform="translate(3677 -11810)" clip-path="url(#clip-path)">
    <g id="Group_100265" data-name="Group 100265" transform="translate(44 9)">
      <g id="Group_100263" data-name="Group 100263" transform="translate(3.841)">
        <path id="Path_182069" data-name="Path 182069" d="M196.87,17.021,211.007.271a.762.762,0,0,1,1.165,0l14.137,16.749a.763.763,0,0,1-.583,1.254H197.453a.762.762,0,0,1-.582-1.254" transform="translate(-3855.451 11810.999)" fill="#009c4d"/>
        <path id="Path_182070" data-name="Path 182070" d="M344.319,69.477h-25.71v0H314.84l.052,6.9v1.747h0V185.935a2.439,2.439,0,0,0,4.868,0v-46.4h22.292c10.585,0,19.131-2.118,25.411-6.3,7.976-5.549,11.69-14.041,11.69-26.723v-5.435c0-30.075-29.017-31.6-34.834-31.6m29.638,37.034c0,25.678-15.762,27.827-31.906,27.827H319.76V74.351h24.559c25.788,0,29.638,16.743,29.638,26.724Z" transform="translate(-3942.222 11759.978)" fill="#3a0360"/>
        <path id="Path_182071" data-name="Path 182071" d="M67.685,70.373v-.841H64.973c-.019,0-.038-.006-.057-.006h-.009L45.576,69.6l-19.983-.074h-.009a2.393,2.393,0,0,0-.008,4.785l20,.075L62.79,74.32v6.763l0,0v104.8a2.441,2.441,0,0,0,4.871,0l.025-115.508Z" transform="translate(-3728.032 11759.939)" fill="#3a0360"/>
      </g>
      <g id="Group_100264" data-name="Group 100264" transform="translate(0)">
        <path id="Path_182072" data-name="Path 182072" d="M10.787,612.351H.364a.422.422,0,0,0,0,.835H5.287v18.059a.418.418,0,0,0,.835,0V613.186h4.665a.452.452,0,0,0,.323-.12.394.394,0,0,0,.121-.287.432.432,0,0,0-.445-.428" transform="translate(-3711 11361.283)" fill="#3a0360"/>
        <path id="Path_182073" data-name="Path 182073" d="M64.7,612.605a.61.61,0,0,0-.566-.464l-.022-.071-.02.068h-.021a.579.579,0,0,0-.582.453l-5.333,18.328a.348.348,0,0,0,.049.354.457.457,0,0,0,.413.16.378.378,0,0,0,.307-.252l1.466-5.065h7.536l1.545,5.049a.346.346,0,0,0,.246.269.392.392,0,0,0,.11.016.418.418,0,0,0,.3-.124.373.373,0,0,0,.083-.388ZM60.64,625.281l3.479-11.8,3.559,11.8Z" transform="translate(-3753.692 11361.488)" fill="#3a0360"/>
        <path id="Path_182074" data-name="Path 182074" d="M142.093,617.327l4.393-5.875a.363.363,0,0,0,.1-.358.442.442,0,0,0-.31-.306.438.438,0,0,0-.437.142l-8.379,11.227V611.567a.4.4,0,0,0-.792,0V630.13a.4.4,0,0,0,.792,0v-6.608l4.047-5.383,4.7,12.168a.389.389,0,0,0,.51.153.414.414,0,0,0,.247-.532Z" transform="translate(-3811.369 11362.441)" fill="#3a0360"/>
        <path id="Path_182075" data-name="Path 182075" d="M219,613.186a.418.418,0,0,0,.412-.43.4.4,0,0,0-.412-.405h-7.925a.45.45,0,0,0-.461.461v18.347a.423.423,0,0,0,.461.461H219a.414.414,0,0,0,.3-.115.377.377,0,0,0,.111-.27.406.406,0,0,0-.412-.407h-7.55v-8.6h6.128a.447.447,0,0,0,0-.879h-6.128v-8.166Z" transform="translate(-3865.676 11361.283)" fill="#3a0360"/>
        <path id="Path_182076" data-name="Path 182076" d="M277.845,612.35h-4.22a.43.43,0,0,0-.418.418v18.52a.418.418,0,0,0,.835,0v-5.656h3.5a6.122,6.122,0,0,0,3.431-.855,4.406,4.406,0,0,0,1.594-3.827v-4.307c0-4.087-3.935-4.294-4.724-4.294m3.846,4.294v4.307c0,3.343-1.993,3.8-4.147,3.8h-3.5V613.185h3.8c3.179,0,3.846,1.881,3.846,3.459" transform="translate(-3911.646 11361.283)" fill="#3a0360"/>
        <path id="Path_182077" data-name="Path 182077" d="M343.033,612.351h-4.221a.429.429,0,0,0-.418.418v18.52a.418.418,0,0,0,.835,0v-5.7h4.193l2.832,5.875a.4.4,0,0,0,.513.168.43.43,0,0,0,.237-.563l-2.765-5.613a5.368,5.368,0,0,0,1.925-.679,4.326,4.326,0,0,0,1.593-3.826v-4.307c0-3.984-3.616-4.294-4.725-4.294m-3.8.835h3.8c3.384,0,3.89,2.167,3.89,3.459v4.307c0,3.342-2.014,3.8-4.191,3.8h-3.5Z" transform="translate(-3959.521 11361.283)" fill="#3a0360"/>
        <path id="Path_182078" data-name="Path 182078" d="M410.033,611.378h-.9c-3.574,0-5.543,2-5.543,5.629v8.527a5.717,5.717,0,0,0,1.437,4.106,5.652,5.652,0,0,0,4.105,1.437h.9a5.194,5.194,0,0,0,5.543-5.543v-8.527c0-3.63-1.969-5.629-5.543-5.629m0,18.864h-.9a4.352,4.352,0,0,1-4.794-4.708v-8.527c0-3.136,1.658-4.794,4.794-4.794h.9c3.168,0,4.708,1.568,4.708,4.794v8.527a4.9,4.9,0,0,1-1.308,3.507,5.136,5.136,0,0,1-3.4,1.2" transform="translate(-4007.398 11361.997)" fill="#3a0360"/>
        <path id="Path_182079" data-name="Path 182079" d="M486.361,612.351h-7.925a.391.391,0,0,0-.417.374v18.563a.418.418,0,0,0,.43.412.4.4,0,0,0,.405-.412v-9.057h6.129a.44.44,0,1,0,0-.879h-6.129v-8.166h7.507a.418.418,0,0,0,.412-.43.4.4,0,0,0-.412-.405" transform="translate(-4062.063 11361.283)" fill="#3a0360"/>
        <path id="Path_182080" data-name="Path 182080" d="M548.683,612.351H538.261a.422.422,0,0,0,0,.835h4.923v18.059a.418.418,0,0,0,.835,0V613.186h4.665a.452.452,0,0,0,.323-.12.394.394,0,0,0,.121-.287.432.432,0,0,0-.445-.428" transform="translate(-4098.038 11361.283)" fill="#3a0360"/>
        <path id="Union_4" data-name="Union 4" d="M3711-11791.941v-18.662a.4.4,0,0,1,.418-.4.4.4,0,0,1,.418.4v18.662a.4.4,0,0,1-.418.4A.4.4,0,0,1,3711-11791.941Z" transform="translate(-7279.855 23784.469)" fill="#3a0360" stroke="rgba(0,0,0,0)" stroke-width="1"/>
      </g>
    </g>
  </g>
</svg>
